<svg xmlns="http://www.w3.org/2000/svg" viewBox="0 0 64 64">
  <path d="M32 5C16.6 5 5 15.6 5 29.5 5 43 15.9 54 29.8 54h5.1c3.5 0 6-2.5 6-5.6 0-1.6-.7-3-1.8-4.1-1-1-.8-2.5.2-3.4.6-.6 1.4-.9 2.4-.9h4.8C54.3 40 59 34.5 59 27.8 59 15.1 46.6 5 32 5Z" fill="#f6efe8" stroke="#21463d" stroke-width="3.5" stroke-linejoin="round"/>
  <circle cx="18" cy="28" r="4" fill="#d88a6d"/>
  <circle cx="25" cy="17" r="4" fill="#c9a36b"/>
  <circle cx="37" cy="16" r="4" fill="#6b907f"/>
  <circle cx="47" cy="22" r="4" fill="#84a9bd"/>
</svg>